<?xml version="1.0" encoding="UTF-8" standalone="no"?>
<!-- Generated by IcoMoon.io -->

<svg
   xmlns:dc="http://purl.org/dc/elements/1.1/"
   xmlns:cc="http://creativecommons.org/ns#"
   xmlns:rdf="http://www.w3.org/1999/02/22-rdf-syntax-ns#"
   xmlns:svg="http://www.w3.org/2000/svg"
   xmlns="http://www.w3.org/2000/svg"
   xmlns:sodipodi="http://sodipodi.sourceforge.net/DTD/sodipodi-0.dtd"
   xmlns:inkscape="http://www.inkscape.org/namespaces/inkscape"
   version="1.1"
   width="48"
   height="48"
   viewBox="0 0 48 48"
   id="svg4"
   sodipodi:docname="blog.svg"
   inkscape:version="0.92.0 r15299">
  <metadata
     id="metadata10">
    <rdf:RDF>
      <cc:Work
         rdf:about="">
        <dc:format>image/svg+xml</dc:format>
        <dc:type
           rdf:resource="http://purl.org/dc/dcmitype/StillImage" />
        <dc:title></dc:title>
      </cc:Work>
    </rdf:RDF>
  </metadata>
  <defs
     id="defs8" />
  <sodipodi:namedview
     pagecolor="#ffffff"
     bordercolor="#666666"
     borderopacity="1"
     objecttolerance="10"
     gridtolerance="10"
     guidetolerance="10"
     inkscape:pageopacity="0"
     inkscape:pageshadow="2"
     inkscape:window-width="1920"
     inkscape:window-height="955"
     id="namedview6"
     showgrid="false"
     inkscape:zoom="3.6875"
     inkscape:cx="32.542373"
     inkscape:cy="32"
     inkscape:window-x="0"
     inkscape:window-y="25"
     inkscape:window-maximized="1"
     inkscape:current-layer="svg4"
     inkscape:pagecheckerboard="true" />
  <path
     d="M 37.499572,3.001 H 7.4984184 C 3.357072,3.001 -0.001,6.3590753 -0.001,10.50183 v 29.99834 c 0,4.142748 3.3573706,7.50083 7.4994184,7.50083 H 37.499572 c 4.142066,0 7.499428,-3.358082 7.499428,-7.50083 V 10.50183 C 44.999,6.3597713 41.641638,3.001 37.499572,3.001 Z m 1.874525,28.480329 c 0,6.020051 -4.899316,10.894049 -10.961546,10.894049 H 16.599529 c -6.058046,0 -10.974915,-4.873998 -10.974915,-10.894049 V 19.524183 C 5.628834,13.503411 10.540798,8.6259102 16.599529,8.6259102 h 5.531397 c 6.062232,0 10.915849,4.5266528 10.915849,10.5467028 0.07937,1.129209 1.095433,2.109359 2.254159,2.109359 h 1.892111 c 1.21143,0 2.181739,1.271228 2.181739,2.474953 v 7.725121 z m -8.437372,-0.355765 c 0,1.546856 -1.265606,2.812442 -2.812481,2.812442 H 16.874436 c -1.546861,0 -2.812441,-1.265586 -2.812441,-2.812442 v 0 c 0,-1.546869 1.26558,-2.812447 2.812441,-2.812447 h 11.249808 c 1.546875,0 2.812481,1.265578 2.812481,2.812447 z M 25.311797,19.87575 c 0,1.546829 -1.265581,2.812447 -2.812459,2.812447 h -5.624902 c -1.546861,0 -2.812441,-1.265618 -2.812441,-2.812447 v 0 c 0,-1.546869 1.26558,-2.81248 2.812441,-2.81248 h 5.624902 c 1.546878,0 2.812459,1.265611 2.812459,2.81248 z"
     id="path2"
     inkscape:connector-curvature="0"
     style="fill:#000000;stroke-width:0.70311409" />
</svg>
