<?xml version="1.0" encoding="UTF-8" standalone="no"?>
<!-- Generator: Adobe Illustrator 18.1.1, SVG Export Plug-In . SVG Version: 6.00 Build 0)  -->

<svg
   xmlns:dc="http://purl.org/dc/elements/1.1/"
   xmlns:cc="http://creativecommons.org/ns#"
   xmlns:rdf="http://www.w3.org/1999/02/22-rdf-syntax-ns#"
   xmlns:svg="http://www.w3.org/2000/svg"
   xmlns="http://www.w3.org/2000/svg"
   xmlns:sodipodi="http://sodipodi.sourceforge.net/DTD/sodipodi-0.dtd"
   xmlns:inkscape="http://www.inkscape.org/namespaces/inkscape"
   version="1.1"
   id="Layer_1"
   x="0px"
   y="0px"
   width="48"
   height="48"
   viewBox="0 0 48 48"
   enable-background="new 0 0 64 64"
   xml:space="preserve"
   sodipodi:docname="github.svg"
   inkscape:version="0.92.1 r15371"><metadata
     id="metadata9"><rdf:RDF><cc:Work
         rdf:about=""><dc:format>image/svg+xml</dc:format><dc:type
           rdf:resource="http://purl.org/dc/dcmitype/StillImage" /><dc:title></dc:title></cc:Work></rdf:RDF></metadata><defs
     id="defs7" /><sodipodi:namedview
     pagecolor="#ffffff"
     bordercolor="#666666"
     borderopacity="1"
     objecttolerance="10"
     gridtolerance="10"
     guidetolerance="10"
     inkscape:pageopacity="0"
     inkscape:pageshadow="2"
     inkscape:window-width="971"
     inkscape:window-height="620"
     id="namedview5"
     showgrid="false"
     inkscape:zoom="3.6875"
     inkscape:cx="32"
     inkscape:cy="32"
     inkscape:window-x="0"
     inkscape:window-y="25"
     inkscape:window-maximized="0"
     inkscape:current-layer="Layer_1" /><path
     d="m 24.371281,0.31766317 c -13.252,0 -23.99839964,11.01634383 -23.99839964,24.60816983 0,10.870344 6.87600004,20.093692 16.41359964,23.347495 1.2,0.22556 1.6384,-0.533962 1.6384,-1.186035 0,-0.583995 -0.0208,-2.131745 -0.0328,-4.18475 -6.676,1.487054 -8.0848,-3.298095 -8.0848,-3.298095 -1.0911996,-2.842875 -2.6647996,-3.599115 -2.6647996,-3.599115 -2.1792,-1.526425 0.1648,-1.496077 0.1648,-1.496077 2.4087996,0.173886 3.6759996,2.536113 3.6759996,2.536113 2.1408,3.759877 5.6168,2.674729 6.9848,2.044802 0.2184,-1.590402 0.8384,-2.674729 1.524,-3.289893 -5.3296,-0.620904 -10.9319996,-2.732145 -10.9319996,-12.161367 0,-2.686212 0.9352,-4.882755 2.4703996,-6.602751 -0.2464,-0.622546 -1.0704,-3.124209 0.2352,-6.511708 0,0 2.0152,-0.6619158 6.6,2.522169 1.9144,-0.545445 3.9672,-0.818577 6.0088,-0.82842 2.0384,0.0098 4.0912,0.282155 6.0088,0.82842 4.5816,-3.1840848 6.5936,-2.522169 6.5936,-2.522169 1.3096,3.387499 0.4856,5.889162 0.2392,6.511708 1.5384,1.719996 2.4672,3.916539 2.4672,6.602751 0,9.453009 -5.6112,11.533081 -10.9576,12.142502 0.8616,0.759522 1.6296,2.26134 1.6296,4.557129 0,3.289893 -0.0296,5.943297 -0.0296,6.750392 0,0.657814 0.432,1.423897 1.6504,1.183574 9.5264,-3.262826 16.3968,-12.479612 16.3968,-23.346675 0,-13.591826 -10.7464,-24.60816983 -24.0016,-24.60816983 z"
     id="path2"
     inkscape:connector-curvature="0"
     style="clip-rule:evenodd;fill:#181616;fill-rule:evenodd;stroke-width:0.81004572" /></svg>