<?xml version="1.0" encoding="UTF-8" standalone="no"?>
<svg
   xmlns:dc="http://purl.org/dc/elements/1.1/"
   xmlns:cc="http://creativecommons.org/ns#"
   xmlns:rdf="http://www.w3.org/1999/02/22-rdf-syntax-ns#"
   xmlns:svg="http://www.w3.org/2000/svg"
   xmlns="http://www.w3.org/2000/svg"
   xmlns:sodipodi="http://sodipodi.sourceforge.net/DTD/sodipodi-0.dtd"
   xmlns:inkscape="http://www.inkscape.org/namespaces/inkscape"
   width="48"
   height="48"
   viewBox="0 0 48 48"
   version="1.1"
   id="svg4"
   sodipodi:docname="google-plus.svg"
   inkscape:version="0.92.1 r15371">
  <metadata
     id="metadata10">
    <rdf:RDF>
      <cc:Work
         rdf:about="">
        <dc:format>image/svg+xml</dc:format>
        <dc:type
           rdf:resource="http://purl.org/dc/dcmitype/StillImage" />
        <dc:title></dc:title>
      </cc:Work>
    </rdf:RDF>
  </metadata>
  <defs
     id="defs8" />
  <sodipodi:namedview
     pagecolor="#ffffff"
     bordercolor="#666666"
     borderopacity="1"
     objecttolerance="10"
     gridtolerance="10"
     guidetolerance="10"
     inkscape:pageopacity="0"
     inkscape:pageshadow="2"
     inkscape:window-width="1920"
     inkscape:window-height="1000"
     id="namedview6"
     showgrid="false"
     inkscape:zoom="7.375"
     inkscape:cx="16"
     inkscape:cy="16"
     inkscape:window-x="-11"
     inkscape:window-y="-11"
     inkscape:window-maximized="1"
     inkscape:current-layer="svg4" />
  <path
     d="M 26.2065,0.23086441 H 13.647 c -5.631,0 -10.9305,5.04908089 -10.9305,10.89706659 0,5.975811 3.8385,10.799423 9.567,10.799423 0.399,0 0.786,-0.0089 1.164,-0.04261 -0.372,0.843289 -0.6375,1.791323 -0.6375,2.776639 0,1.661723 0.7545,3.007434 1.71,4.106373 l -2.178,0.02486 C 5.3685,28.794388 0,34.051184 0,39.503268 c 0,5.368643 5.8845,8.727596 12.8595,8.727596 7.9515,0 12.342,-5.340237 12.342,-10.70888 0,-4.305212 -1.074,-6.883013 -4.392,-9.661427 -1.1355,-0.951585 -3.306,-3.26486 -3.306,-4.622998 0,-1.592485 0.384,-2.378963 2.4105,-4.251952 2.0775,-1.920923 3.5475,-4.621222 3.5475,-7.761807 0,-3.7388763 -1.407,-7.3836594 -4.0485,-8.5873433 h 3.9825 z M 21.819,36.595254 c 0.099,0.497096 0.1545,1.010171 0.1545,1.532122 0,4.338943 -2.3625,7.728077 -9.1395,7.728077 -4.821,0 -8.3025,-3.611052 -8.3025,-7.949995 0,-4.251951 4.3185,-7.791989 9.1395,-7.729852 1.125,0.0142 2.1735,0.22902 3.1245,0.592966 2.6175,2.155268 4.494,3.373155 5.0235,5.826682 z M 14.1015,20.412985 c -3.2355,-0.115398 -6.3105,-4.283907 -6.87,-9.313459 -0.558,-5.0295522 1.611,-8.8785 4.8465,-8.7648779 3.2355,0.1153974 6.3105,4.1507564 6.87,9.1803089 0.558,5.029551 -1.6125,9.013425 -4.8465,8.898028 z M 39,10.882934 V 0.23086441 H 36 V 10.882934 h -9 v 3.550689 h 9 v 10.65207 h 3 v -10.65207 h 9 v -3.550689 z"
     id="path2"
     inkscape:connector-curvature="0"
     style="fill:#222222;stroke-width:1.63187551" />
</svg>
