<?xml version="1.0" encoding="UTF-8" standalone="no"?>
<!-- Generated by IcoMoon.io -->

<svg
   xmlns:dc="http://purl.org/dc/elements/1.1/"
   xmlns:cc="http://creativecommons.org/ns#"
   xmlns:rdf="http://www.w3.org/1999/02/22-rdf-syntax-ns#"
   xmlns:svg="http://www.w3.org/2000/svg"
   xmlns="http://www.w3.org/2000/svg"
   xmlns:sodipodi="http://sodipodi.sourceforge.net/DTD/sodipodi-0.dtd"
   xmlns:inkscape="http://www.inkscape.org/namespaces/inkscape"
   version="1.1"
   width="48"
   height="48"
   viewBox="0 0 48 48"
   id="svg4"
   sodipodi:docname="instagram.svg"
   inkscape:version="0.92.1 r15371">
  <metadata
     id="metadata10">
    <rdf:RDF>
      <cc:Work
         rdf:about="">
        <dc:format>image/svg+xml</dc:format>
        <dc:type
           rdf:resource="http://purl.org/dc/dcmitype/StillImage" />
        <dc:title></dc:title>
      </cc:Work>
    </rdf:RDF>
  </metadata>
  <defs
     id="defs8" />
  <sodipodi:namedview
     pagecolor="#ffffff"
     bordercolor="#666666"
     borderopacity="1"
     objecttolerance="10"
     gridtolerance="10"
     guidetolerance="10"
     inkscape:pageopacity="0"
     inkscape:pageshadow="2"
     inkscape:window-width="838"
     inkscape:window-height="611"
     id="namedview6"
     showgrid="false"
     inkscape:zoom="3.88"
     inkscape:cx="32"
     inkscape:cy="32"
     inkscape:window-x="0"
     inkscape:window-y="25"
     inkscape:window-maximized="0"
     inkscape:current-layer="svg4" />
  <path
     d="M 40.03125,0 H 7.96875 C 3.58575,0 0,3.58575 0,7.96875 v 32.0625 C 0,44.41425 3.58575,48 7.96875,48 h 32.0625 C 44.41425,48 48,44.41425 48,40.03125 V 7.96875 C 48,3.58575 44.41425,0 40.03125,0 Z M 15.366,21 h 17.26875 c 0.32775,0.9405 0.50625,1.94925 0.50625,3 0,5.04 -4.10025,9.141 -9.141,9.141 -5.04075,0 -9.141,-4.10025 -9.141,-9.141 0,-1.05075 0.1785,-2.0595 0.50625,-3 z M 42,21.00225 V 39 c 0,1.65 -1.35,3 -3,3 H 9 C 7.35,42 6,40.65 6,39 V 21 h 4.69275 c -0.2175,0.966 -0.333,1.9695 -0.333,3 0,7.52175 6.11925,13.641 13.641,13.641 7.52175,0 13.641,-6.11925 13.641,-13.641 0,-1.0305 -0.1155,-2.034 -0.333,-3 l 4.69275,0.0022 z M 42,10.5 c 0,0.825 -0.675,1.5 -1.5,1.5 h -3 C 36.675,12 36,11.325 36,10.5 v -3 C 36,6.675 36.675,6 37.5,6 h 3 C 41.325,6 42,6.675 42,7.5 Z"
     id="path2"
     inkscape:connector-curvature="0"
     style="fill:#000000;stroke-width:0.75" />
</svg>
