<?xml version="1.0" encoding="UTF-8" standalone="no"?>
<!-- Generator: Adobe Illustrator 13.0.0, SVG Export Plug-In  -->

<svg
   xmlns:dc="http://purl.org/dc/elements/1.1/"
   xmlns:cc="http://creativecommons.org/ns#"
   xmlns:rdf="http://www.w3.org/1999/02/22-rdf-syntax-ns#"
   xmlns:svg="http://www.w3.org/2000/svg"
   xmlns="http://www.w3.org/2000/svg"
   xmlns:sodipodi="http://sodipodi.sourceforge.net/DTD/sodipodi-0.dtd"
   xmlns:inkscape="http://www.inkscape.org/namespaces/inkscape"
   version="1.1"
   x="0px"
   y="0px"
   width="48"
   height="48"
   viewBox="-10.471 0 47.999979 47.999973"
   enable-background="new -10.471 0 128 128"
   xml:space="preserve"
   id="svg6"
   sodipodi:docname="macosx.svg"
   inkscape:version="0.92.0 r15299"><metadata
     id="metadata10"><rdf:RDF><cc:Work
         rdf:about=""><dc:format>image/svg+xml</dc:format><dc:type
           rdf:resource="http://purl.org/dc/dcmitype/StillImage" /><dc:title></dc:title></cc:Work></rdf:RDF></metadata><sodipodi:namedview
     pagecolor="#ffffff"
     bordercolor="#666666"
     borderopacity="1"
     objecttolerance="10"
     gridtolerance="10"
     guidetolerance="10"
     inkscape:pageopacity="0"
     inkscape:pageshadow="2"
     inkscape:window-width="866"
     inkscape:window-height="611"
     id="namedview8"
     showgrid="false"
     inkscape:zoom="1.84375"
     inkscape:cx="65.084746"
     inkscape:cy="61.016949"
     inkscape:window-x="0"
     inkscape:window-y="25"
     inkscape:window-maximized="0"
     inkscape:current-layer="svg6"
     showborder="false"
     units="px"
     height="61mm" /><defs
     id="defs2" /><path
     d="m 38.237288,35.57292 c -0.865766,2.41124 -2.263724,4.806748 -4.20329,7.183116 -2.964048,3.789748 -5.928992,5.684628 -8.895282,5.684628 -1.108323,0 -2.716558,-0.31388 -4.817082,-0.9315 -1.977676,-0.61763 -3.684548,-0.9285 -5.125996,-0.9285 -1.441448,0 -3.100795,0.32325 -4.976247,0.98212 -1.8714159,0.65325 -3.3868419,0.9795 -4.5386559,0.9795 -3.500724,0 -6.9516808,-2.503498 -10.3461455,-7.516126 -3.3980516,-5.009618 -5.0973015,-9.841864 -5.0973015,-14.495982 0,-4.372498 1.2975275,-7.954876 3.8907892,-10.744874 2.5950551,-2.79 5.87025844,-4.185748 9.8233688,-4.185748 1.644551,0 3.665717,0.29287 6.0558749,0.8775 2.384779,0.584618 3.970148,0.877868 4.756555,0.877868 1.028517,0 2.695486,-0.32812 5.002251,-0.980618 2.305869,-0.65288 4.281303,-0.98063 5.932579,-0.98063 2.716559,0 5.167693,0.6195 7.350265,1.858498 1.189027,0.68775 2.386572,1.65263 3.579634,2.89463 -1.852586,1.273498 -3.170738,2.411248 -3.950868,3.410998 -1.484938,1.790248 -2.226063,3.770618 -2.226063,5.941126 0,2.411618 0.782373,4.564488 2.350704,6.455616 1.561158,1.8975 3.373841,3.10163 5.43491,3.618378 z M 25.324333,1.7303086 c 0,1.17112 -0.337159,2.48137 -1.017308,3.9277476 -0.680596,1.44825 -1.759777,2.77425 -3.241128,3.9764981 -1.238794,1.0346197 -2.474001,1.7396197 -3.708759,2.1183697 -0.827656,0.20738 -2.018924,0.3645 -3.583669,0.46425 0.08339,-2.8582497 0.977405,-5.3201178 2.687864,-7.3859954 1.706423,-2.06775 4.578111,-3.49575 8.616407,-4.28886773 0.04214,0.0698 0.08384,0.17025 0.12509,0.30975 0.0399,0.13875 0.06053,0.24225003 0.06053,0.31124803 v 0.3097497 c 0,0.10462 0.02107,0.18787 0.06098,0.25725 z"
     id="path4"
     inkscape:connector-curvature="0"
     style="stroke-width:0.41003853" /></svg>