<?xml version="1.0" encoding="UTF-8" standalone="no"?>
<!-- Generated by IcoMoon.io -->

<svg
   xmlns:dc="http://purl.org/dc/elements/1.1/"
   xmlns:cc="http://creativecommons.org/ns#"
   xmlns:rdf="http://www.w3.org/1999/02/22-rdf-syntax-ns#"
   xmlns:svg="http://www.w3.org/2000/svg"
   xmlns="http://www.w3.org/2000/svg"
   xmlns:sodipodi="http://sodipodi.sourceforge.net/DTD/sodipodi-0.dtd"
   xmlns:inkscape="http://www.inkscape.org/namespaces/inkscape"
   version="1.1"
   width="48"
   height="48"
   viewBox="0 0 48 48"
   id="svg4"
   sodipodi:docname="mail.svg"
   inkscape:version="0.92.1 r15371">
  <metadata
     id="metadata10">
    <rdf:RDF>
      <cc:Work
         rdf:about="">
        <dc:format>image/svg+xml</dc:format>
        <dc:type
           rdf:resource="http://purl.org/dc/dcmitype/StillImage" />
        <dc:title></dc:title>
      </cc:Work>
    </rdf:RDF>
  </metadata>
  <defs
     id="defs8" />
  <sodipodi:namedview
     pagecolor="#ffffff"
     bordercolor="#666666"
     borderopacity="1"
     objecttolerance="10"
     gridtolerance="10"
     guidetolerance="10"
     inkscape:pageopacity="0"
     inkscape:pageshadow="2"
     inkscape:window-width="828"
     inkscape:window-height="480"
     id="namedview6"
     showgrid="false"
     inkscape:zoom="3.6875"
     inkscape:cx="32"
     inkscape:cy="32"
     inkscape:window-x="0"
     inkscape:window-y="25"
     inkscape:window-maximized="0"
     inkscape:current-layer="svg4" />
  <path
     d="M 39.999,0 H 8.001 C 3.60075,0 0,3.59925 0,7.9995 V 39.999 C 0,44.39925 3.60075,48 8.001,48 H 39.999 C 44.40225,48 48,44.39925 48,39.999 V 7.9995 C 48,3.59925 44.40225,0 39.999,0 Z M 12,12 h 24 c 0.42825,0 0.84375,0.09225 1.2255,0.2655 L 24,27.69525 10.7745,12.2655 C 11.15625,12.09225 11.57175,12 12,12 Z M 9,33 V 15 c 0,-0.063 0.003,-0.12525 0.00675,-0.1875 l 8.79675,10.263 -8.7,8.7 C 9.036,33.525 9,33.2655 9,33 Z m 27,3 H 12 c -0.26475,0 -0.525,-0.036 -0.7755,-0.1035 L 19.761,27.36 23.99925,32.30475 28.2375,27.36 36.774,35.8965 C 36.5235,35.964 36.264,36 35.9985,36 Z m 3,-3 c 0,0.26475 -0.036,0.525 -0.1035,0.7755 l -8.7,-8.7 8.79675,-10.263 C 38.997,14.87475 39,14.937 39,15 Z"
     id="path2"
     inkscape:connector-curvature="0"
     style="fill:#000000;stroke-width:0.75" />
</svg>
