<?xml version="1.0" encoding="UTF-8" standalone="no"?>
<svg
   xmlns:dc="http://purl.org/dc/elements/1.1/"
   xmlns:cc="http://creativecommons.org/ns#"
   xmlns:rdf="http://www.w3.org/1999/02/22-rdf-syntax-ns#"
   xmlns:svg="http://www.w3.org/2000/svg"
   xmlns="http://www.w3.org/2000/svg"
   xmlns:sodipodi="http://sodipodi.sourceforge.net/DTD/sodipodi-0.dtd"
   xmlns:inkscape="http://www.inkscape.org/namespaces/inkscape"
   height="48"
   id="Layer_1"
   version="1.1"
   viewBox="0 0 48 48"
   width="48"
   xml:space="preserve"
   sodipodi:docname="pinterest.svg"
   inkscape:version="0.92.1 r15371"><metadata
     id="metadata11"><rdf:RDF><cc:Work
         rdf:about=""><dc:format>image/svg+xml</dc:format><dc:type
           rdf:resource="http://purl.org/dc/dcmitype/StillImage" /><dc:title></dc:title></cc:Work></rdf:RDF></metadata><defs
     id="defs9" /><sodipodi:namedview
     pagecolor="#ffffff"
     bordercolor="#666666"
     borderopacity="1"
     objecttolerance="10"
     gridtolerance="10"
     guidetolerance="10"
     inkscape:pageopacity="0"
     inkscape:pageshadow="2"
     inkscape:window-width="882"
     inkscape:window-height="612"
     id="namedview7"
     showgrid="false"
     inkscape:zoom="1.84375"
     inkscape:cx="64"
     inkscape:cy="42.305085"
     inkscape:window-x="0"
     inkscape:window-y="25"
     inkscape:window-maximized="0"
     inkscape:current-layer="Layer_1" /><style
     type="text/css"
     id="style2"><![CDATA[
	.st0{fill-rule:evenodd;clip-rule:evenodd;}
]]></style><path
     d="m 24.554801,-0.0100339 c -13.254765,0 -24.00239422,10.7448079 -24.00239422,23.9997989 0,9.827916 5.91033502,18.271139 14.36688522,21.98297 -0.0664,-1.67797 -0.01082,-3.689153 0.415685,-5.510064 0.4643,-1.951395 3.090773,-13.081067 3.090773,-13.081067 0,0 -0.768887,-1.530828 -0.768887,-3.795808 0,-3.555003 2.064553,-6.211808 4.632889,-6.211808 2.179132,0 3.235704,1.638415 3.235704,3.600993 0,2.195134 -1.401539,5.478045 -2.119243,8.517143 -0.603124,2.545731 1.276147,4.621957 3.784181,4.621957 4.548711,0 7.610844,-5.837762 7.610844,-12.758561 0,-5.259369 -3.539871,-9.195339 -9.98524,-9.195339 -7.279756,0 -11.81505,5.427267 -11.81505,11.490267 0,2.091852 0.616592,3.566691 1.582059,4.709154 0.445225,0.525056 0.506382,0.733728 0.342366,1.336928 -0.110657,0.442901 -0.374456,1.505131 -0.485559,1.925241 -0.161821,0.611324 -0.652169,0.825706 -1.202377,0.600889 -3.3532862,-1.366393 -4.9149292,-5.038925 -4.9149292,-9.167116 0,-6.816219 5.7484882,-14.9932058 17.1534772,-14.9932058 9.162113,0 15.19525,6.6314178 15.19525,13.7492118 0,9.414511 -5.237355,16.446789 -12.951029,16.446789 -2.593521,0 -5.03081,-1.401111 -5.863046,-2.98965 0,0 -1.394619,5.52935 -1.688793,6.598305 -0.508567,1.84608 -1.506124,3.699949 -2.415626,5.140521 2.156141,0.636279 4.436784,0.982451 6.8016,0.982451 13.252196,0 23.998066,-10.743468 23.998066,-23.999799 3.84e-4,-13.255393 -10.74544,-24.0002009 -23.997606,-24.0002009 z"
     id="path4"
     inkscape:connector-curvature="0"
     style="stroke-width:0.43390995"
     inkscape:transform-center-x="-0.54237288"
     inkscape:transform-center-y="-5.4237288" /></svg>