<?xml version="1.0" encoding="UTF-8" standalone="no"?>
<svg
   xmlns:dc="http://purl.org/dc/elements/1.1/"
   xmlns:cc="http://creativecommons.org/ns#"
   xmlns:rdf="http://www.w3.org/1999/02/22-rdf-syntax-ns#"
   xmlns:svg="http://www.w3.org/2000/svg"
   xmlns="http://www.w3.org/2000/svg"
   xmlns:sodipodi="http://sodipodi.sourceforge.net/DTD/sodipodi-0.dtd"
   xmlns:inkscape="http://www.inkscape.org/namespaces/inkscape"
   version="1.0"
   width="48"
   height="48"
   viewBox="0 0 35.99999 35.999998"
   preserveAspectRatio="xMidYMid meet"
   id="svg2"
   inkscape:version="0.92.0 r15299"
   sodipodi:docname="windows_backup.svg">
  <defs
     id="defs18" />
  <sodipodi:namedview
     pagecolor="#ffffff"
     bordercolor="#666666"
     borderopacity="1"
     objecttolerance="10"
     gridtolerance="10"
     guidetolerance="10"
     inkscape:pageopacity="0"
     inkscape:pageshadow="2"
     inkscape:window-width="1920"
     inkscape:window-height="955"
     id="namedview16"
     showgrid="false"
     inkscape:zoom="1.4932279"
     inkscape:cx="325.59121"
     inkscape:cy="234.0871"
     inkscape:window-x="0"
     inkscape:window-y="25"
     inkscape:window-maximized="1"
     inkscape:current-layer="svg2" />
  <metadata
     id="metadata4">
Created by potrace 1.10, written by Peter Selinger 2001-2011
<rdf:RDF>
  <cc:Work
     rdf:about="">
    <dc:format>image/svg+xml</dc:format>
    <dc:type
       rdf:resource="http://purl.org/dc/dcmitype/StillImage" />
    <dc:title></dc:title>
  </cc:Work>
</rdf:RDF>
</metadata>
  <g
     transform="matrix(0.00180024,0,0,-0.00178971,0.30985572,36.391147)"
     id="g6"
     style="fill:#000000;stroke:none">
    <path
       d="m 19755,20185 c -241,-37 -290,-44 -350,-51 -22,-3 -47,-7 -55,-9 -8,-2 -37,-7 -65,-10 -27,-4 -61,-8 -75,-11 -14,-2 -59,-8 -101,-14 -41,-6 -85,-12 -96,-14 -11,-3 -44,-7 -74,-11 -30,-3 -61,-8 -69,-10 -8,-2 -33,-6 -55,-9 -22,-3 -74,-11 -115,-17 -41,-6 -88,-12 -105,-14 -16,-3 -48,-7 -70,-10 -22,-4 -51,-8 -65,-10 -14,-2 -74,-11 -135,-20 -60,-9 -126,-18 -145,-21 -19,-2 -62,-9 -95,-14 -92,-14 -132,-20 -172,-25 -63,-9 -117,-17 -134,-20 -9,-2 -40,-6 -70,-10 -30,-3 -108,-15 -174,-25 -66,-10 -140,-21 -165,-25 -25,-3 -58,-8 -73,-10 -15,-2 -47,-7 -70,-10 -23,-3 -53,-8 -67,-10 -14,-2 -45,-7 -70,-10 -25,-3 -74,-11 -110,-16 -36,-5 -76,-12 -90,-14 -14,-2 -43,-6 -65,-10 -22,-3 -53,-8 -70,-10 -41,-5 -294,-41 -345,-50 -14,-2 -61,-9 -105,-15 -44,-6 -91,-13 -105,-15 -14,-3 -61,-9 -105,-15 -44,-6 -92,-13 -107,-16 -16,-2 -40,-6 -55,-8 -16,-3 -48,-8 -73,-11 -83,-12 -115,-16 -145,-22 -38,-6 -56,-9 -125,-17 -30,-4 -66,-9 -80,-11 -48,-9 -85,-14 -130,-20 -25,-3 -56,-7 -70,-10 -14,-2 -43,-7 -65,-10 -74,-11 -170,-24 -220,-31 -27,-3 -59,-8 -70,-10 -11,-2 -38,-7 -60,-9 -22,-3 -51,-7 -65,-10 -14,-3 -38,-7 -55,-9 -94,-14 -192,-28 -219,-32 -35,-4 -167,-23 -207,-30 -15,-2 -47,-6 -70,-9 -24,-3 -69,-10 -99,-15 -30,-5 -73,-11 -95,-14 -22,-3 -87,-12 -145,-21 -58,-8 -118,-17 -135,-19 -103,-15 -254,-37 -275,-41 -14,-2 -45,-7 -69,-10 -23,-3 -55,-7 -70,-10 -33,-6 -212,-32 -271,-40 -25,-3 -56,-8 -70,-10 -14,-3 -45,-7 -70,-10 -25,-3 -56,-8 -70,-10 -24,-4 -148,-22 -343,-50 -210,-30 -544,-79 -677,-100 -19,-3 -55,-7 -80,-10 -25,-3 -67,-10 -95,-15 -27,-5 -72,-12 -100,-15 -27,-3 -61,-8 -75,-10 -57,-9 -298,-44 -340,-50 -25,-3 -56,-8 -70,-10 -14,-2 -45,-7 -70,-10 -25,-3 -70,-10 -100,-15 -85,-14 -118,-19 -210,-30 -47,-6 -92,-13 -100,-15 -8,-2 -37,-7 -65,-10 -27,-3 -77,-10 -110,-15 -33,-5 -80,-12 -105,-15 -25,-3 -52,-8 -60,-10 -8,-3 -37,-7 -65,-10 -27,-2 -61,-7 -75,-9 -14,-3 -43,-7 -65,-11 -22,-3 -67,-10 -100,-15 -33,-5 -82,-12 -110,-15 -27,-4 -57,-8 -65,-10 -8,-2 -33,-6 -55,-9 -106,-14 -136,-18 -220,-31 -49,-8 -112,-17 -140,-20 -27,-4 -57,-8 -65,-10 -8,-2 -42,-7 -75,-10 -33,-4 -64,-11 -70,-16 -7,-7 -10,-1362 -10,-4024 l -1,-4015 h 21 c 71,-2 725,2 2210,15 446,3 1035,8 1310,10 938,7 1889,15 2520,20 347,3 896,7 1220,10 325,3 910,7 1300,10 1401,12 1634,14 1928,15 l 297,1 v 4770 c 0,3809 -3,4769 -12,4768 -7,-1 -112,-16 -233,-34 z"
       id="path8"
       inkscape:connector-curvature="0" />
    <path
       d="m 8189,18496 c -2,-2 -31,-7 -64,-10 -33,-4 -67,-9 -75,-11 -8,-2 -37,-6 -65,-10 -59,-6 -228,-29 -375,-50 -58,-8 -123,-17 -145,-20 -22,-2 -58,-7 -80,-10 -78,-11 -111,-16 -220,-31 -60,-8 -128,-17 -150,-20 -22,-2 -51,-7 -65,-9 -14,-3 -47,-7 -75,-10 -27,-3 -59,-7 -70,-9 -11,-2 -45,-7 -75,-11 -30,-4 -62,-8 -70,-10 -8,-1 -42,-6 -75,-10 -32,-4 -66,-8 -75,-10 -8,-1 -42,-6 -75,-9 -33,-4 -67,-9 -75,-11 -8,-2 -37,-6 -65,-10 -27,-3 -61,-7 -75,-10 -14,-2 -45,-6 -70,-9 -25,-3 -112,-15 -195,-26 -82,-12 -161,-22 -175,-24 -14,-2 -52,-7 -85,-12 -33,-4 -62,-8 -65,-9 -3,0 -36,-5 -75,-9 -38,-5 -79,-10 -90,-12 -11,-2 -40,-6 -65,-9 -25,-3 -56,-7 -70,-10 -14,-2 -47,-6 -75,-10 -27,-3 -57,-8 -65,-10 -8,-2 -40,-6 -71,-10 -31,-3 -66,-7 -77,-10 -12,-2 -47,-6 -78,-10 -32,-3 -60,-8 -63,-9 -3,-2 -35,-7 -71,-10 -36,-4 -92,-11 -125,-16 -33,-5 -79,-12 -102,-15 -24,-3 -61,-7 -84,-10 -23,-3 -53,-7 -68,-9 -14,-3 -80,-12 -146,-21 -66,-9 -131,-18 -145,-20 -14,-2 -48,-7 -76,-10 -28,-3 -59,-7 -70,-9 -24,-5 -121,-18 -154,-21 -27,-3 -179,-24 -220,-30 -14,-2 -47,-7 -75,-10 -27,-3 -61,-8 -75,-10 -14,-3 -47,-7 -75,-10 -27,-3 -61,-8 -75,-10 -37,-7 -79,-13 -135,-20 -27,-3 -77,-10 -110,-15 -33,-5 -87,-12 -120,-15 -33,-4 -62,-8 -65,-10 -3,-2 -30,-6 -60,-9 -30,-4 -68,-8 -85,-10 -63,-8 -121,-17 -160,-23 -22,-3 -51,-7 -65,-8 -14,-2 -43,-5 -65,-8 -22,-4 -60,-9 -85,-12 -25,-3 -56,-8 -70,-10 -14,-2 -79,-11 -145,-20 -66,-9 -131,-18 -145,-20 -14,-2 -49,-7 -79,-10 -30,-4 -62,-8 -71,-10 -9,-2 -41,-6 -71,-10 -30,-3 -97,-13 -149,-20 -52,-8 -117,-17 -145,-20 -65,-8 -106,-13 -180,-25 -33,-5 -85,-12 -115,-15 -30,-3 -66,-7 -80,-10 -14,-2 -45,-7 -70,-10 -43,-5 -167,-22 -220,-30 -14,-2 -45,-6 -70,-10 -25,-3 -58,-8 -75,-10 -16,-2 -48,-6 -70,-9 -65,-9 -126,-17 -143,-20 -10,-2 -43,-7 -76,-11 -32,-3 -68,-8 -80,-10 -11,-2 -59,-9 -106,-15 -104,-13 -160,-21 -180,-25 -8,-2 -23,-4 -32,-4 -16,-1 -17,-204 -14,-3416 2,-1879 6,-3418 9,-3422 6,-5 479,-5 1612,2 899,6 3034,18 5285,30 685,4 1256,8 1270,9 l 25,1 v 3953 c 0,2175 -3,3956 -6,3958 -3,2 -8,2 -10,0 z"
       id="path10"
       inkscape:connector-curvature="0" />
    <path
       d="M 9,9715 C 8,9710 7,8169 7,6293 l -2,-3413 25,-5 c 14,-2 79,-12 145,-21 149,-20 148,-20 215,-28 30,-4 62,-9 70,-11 8,-2 44,-7 80,-10 36,-4 74,-9 85,-11 24,-5 77,-12 130,-19 61,-7 189,-25 211,-29 10,-2 46,-7 79,-11 32,-4 68,-9 80,-11 11,-2 41,-6 66,-8 26,-3 57,-7 70,-10 13,-3 47,-8 74,-11 28,-3 64,-8 80,-10 17,-3 48,-7 70,-10 22,-3 69,-10 105,-15 36,-5 85,-12 110,-15 57,-7 118,-15 151,-21 15,-2 47,-6 70,-9 24,-3 107,-15 184,-26 77,-10 157,-21 178,-24 20,-3 56,-7 80,-11 23,-3 69,-9 102,-14 33,-5 101,-14 150,-21 50,-6 99,-13 110,-14 11,-2 74,-11 140,-20 66,-9 134,-18 150,-20 17,-3 50,-7 75,-10 25,-3 56,-7 70,-10 14,-2 45,-7 70,-10 25,-4 56,-8 70,-10 14,-2 45,-6 70,-10 25,-3 62,-8 83,-11 46,-7 66,-10 142,-19 33,-3 71,-8 85,-11 14,-2 36,-6 50,-8 28,-5 95,-14 155,-21 64,-8 263,-36 282,-39 10,-2 47,-7 83,-11 36,-4 74,-9 85,-11 18,-4 201,-29 285,-40 19,-2 51,-7 70,-9 82,-13 174,-25 218,-30 26,-3 58,-8 72,-10 14,-3 41,-7 60,-9 74,-10 132,-18 148,-21 10,-1 42,-6 73,-9 31,-4 66,-8 77,-11 11,-2 75,-11 144,-19 68,-9 135,-18 148,-21 13,-2 46,-7 74,-10 28,-3 62,-7 76,-10 14,-2 45,-7 70,-10 25,-4 56,-8 70,-10 14,-2 63,-9 110,-15 47,-6 96,-13 110,-15 14,-2 63,-9 110,-15 47,-6 97,-13 111,-15 14,-3 43,-7 64,-10 34,-4 81,-10 145,-20 14,-2 50,-7 80,-10 30,-4 63,-9 74,-11 10,-2 44,-6 75,-10 31,-3 63,-8 72,-9 9,-2 40,-6 70,-10 30,-3 95,-12 145,-20 49,-8 115,-17 145,-20 30,-3 63,-8 74,-10 11,-2 49,-7 85,-11 36,-3 68,-8 71,-10 3,-1 31,-6 63,-9 31,-4 65,-8 76,-10 10,-2 40,-6 67,-10 26,-4 58,-8 69,-10 12,-2 48,-7 80,-10 33,-4 68,-9 79,-11 11,-2 45,-7 75,-10 30,-3 57,-7 60,-9 4,-3 85,-12 156,-18 19,-2 19,67 17,3952 -2,2175 -5,3956 -7,3958 -2,3 -289,6 -638,8 -348,2 -1000,7 -1448,10 -754,5 -1551,10 -3110,20 -338,2 -1099,7 -1690,11 -591,3 -1126,7 -1187,8 -69,1 -113,-3 -114,-9 z"
       id="path12"
       inkscape:connector-curvature="0" />
    <path
       d="m 9186,6265 c 8,-4661 8,-4622 17,-4632 5,-4 12,-8 15,-9 4,0 34,-4 67,-8 33,-5 69,-10 80,-11 11,-2 39,-6 61,-9 23,-4 59,-9 80,-11 22,-3 102,-14 179,-26 77,-11 158,-22 180,-24 22,-3 51,-7 65,-10 14,-3 41,-7 60,-9 66,-9 265,-36 330,-46 36,-5 83,-12 105,-15 22,-3 72,-10 110,-16 39,-5 88,-12 110,-14 22,-3 51,-7 65,-9 14,-3 45,-8 70,-11 25,-4 56,-8 70,-10 14,-2 45,-7 70,-10 25,-3 56,-7 70,-10 24,-4 38,-6 145,-20 28,-4 61,-9 75,-11 14,-2 93,-13 175,-24 141,-20 166,-23 240,-35 17,-3 48,-8 70,-10 92,-12 121,-15 140,-19 12,-2 48,-7 80,-11 33,-4 69,-9 80,-11 11,-2 45,-7 75,-10 30,-3 57,-7 60,-9 3,-2 30,-6 60,-10 30,-3 66,-8 80,-10 14,-2 45,-7 70,-10 25,-3 90,-13 145,-21 55,-8 123,-17 150,-20 28,-3 52,-7 55,-9 3,-2 37,-7 75,-10 39,-4 72,-8 75,-10 3,-2 30,-6 60,-10 30,-3 82,-10 115,-15 33,-5 80,-12 105,-15 25,-3 56,-7 70,-10 14,-3 45,-7 70,-10 25,-3 56,-7 70,-10 23,-4 69,-11 137,-19 15,-2 46,-7 68,-10 22,-3 103,-15 180,-26 77,-11 160,-22 185,-25 25,-3 56,-7 70,-10 14,-2 45,-7 70,-10 25,-3 56,-8 70,-10 14,-2 45,-7 70,-10 25,-4 56,-8 70,-10 46,-7 184,-26 220,-31 19,-3 46,-7 60,-9 14,-3 48,-7 75,-10 28,-3 57,-8 65,-10 8,-2 40,-7 70,-10 52,-6 68,-8 138,-19 15,-3 65,-10 112,-16 47,-6 96,-13 110,-15 14,-2 43,-6 65,-9 73,-10 469,-66 505,-71 19,-3 100,-15 180,-26 80,-11 156,-22 170,-24 14,-2 45,-6 70,-10 25,-4 56,-8 70,-10 14,-2 48,-7 75,-10 28,-3 57,-7 65,-10 8,-2 42,-6 75,-10 33,-3 69,-8 80,-10 11,-3 38,-7 60,-10 68,-10 259,-37 280,-40 11,-1 47,-6 80,-10 33,-4 69,-9 80,-11 11,-3 40,-7 65,-9 25,-3 56,-8 70,-10 14,-3 43,-7 65,-10 22,-3 54,-7 70,-10 17,-3 50,-7 75,-10 25,-3 56,-7 70,-10 14,-3 43,-7 65,-10 22,-2 119,-16 215,-30 96,-14 193,-28 215,-30 22,-3 58,-8 80,-11 22,-4 49,-8 60,-9 11,-2 58,-8 105,-15 47,-6 101,-13 120,-16 19,-3 46,-7 60,-9 14,-3 45,-7 70,-10 25,-3 56,-7 70,-10 14,-3 43,-7 65,-10 22,-2 58,-7 80,-11 66,-9 86,-12 175,-24 47,-6 96,-13 110,-15 14,-2 61,-9 105,-15 44,-6 91,-13 105,-15 14,-2 48,-7 75,-10 28,-3 61,-8 75,-11 14,-2 43,-7 65,-9 22,-3 51,-7 65,-10 14,-3 45,-7 70,-10 25,-3 106,-14 180,-25 74,-11 159,-23 189,-26 30,-3 58,-7 61,-9 4,-3 36,-7 70,-10 35,-4 67,-8 72,-11 4,-3 8,2132 8,4744 v 4749 l -1242,2 c -1208,2 -6583,11 -8586,14 l -992,2 z"
       id="path14"
       inkscape:connector-curvature="0" />
  </g>
</svg>
