<?xml version="1.0" encoding="UTF-8" standalone="no"?>
<!-- Generated by IcoMoon.io -->

<svg
   xmlns:dc="http://purl.org/dc/elements/1.1/"
   xmlns:cc="http://creativecommons.org/ns#"
   xmlns:rdf="http://www.w3.org/1999/02/22-rdf-syntax-ns#"
   xmlns:svg="http://www.w3.org/2000/svg"
   xmlns="http://www.w3.org/2000/svg"
   xmlns:sodipodi="http://sodipodi.sourceforge.net/DTD/sodipodi-0.dtd"
   xmlns:inkscape="http://www.inkscape.org/namespaces/inkscape"
   version="1.1"
   width="48"
   height="48"
   viewBox="0 0 48 48"
   id="svg14"
   sodipodi:docname="youtube.svg"
   inkscape:version="0.92.0 r15299">
  <metadata
     id="metadata20">
    <rdf:RDF>
      <cc:Work
         rdf:about="">
        <dc:format>image/svg+xml</dc:format>
        <dc:type
           rdf:resource="http://purl.org/dc/dcmitype/StillImage" />
        <dc:title></dc:title>
      </cc:Work>
    </rdf:RDF>
  </metadata>
  <defs
     id="defs18" />
  <sodipodi:namedview
     pagecolor="#ffffff"
     bordercolor="#666666"
     borderopacity="1"
     objecttolerance="10"
     gridtolerance="10"
     guidetolerance="10"
     inkscape:pageopacity="0"
     inkscape:pageshadow="2"
     inkscape:window-width="865"
     inkscape:window-height="480"
     id="namedview16"
     showgrid="false"
     inkscape:zoom="3.6875"
     inkscape:cx="32"
     inkscape:cy="32"
     inkscape:window-x="0"
     inkscape:window-y="25"
     inkscape:window-maximized="0"
     inkscape:current-layer="svg14" />
  <path
     d="M 13.743,-0.001 10.5,6.4318505 7.257,-0.001 H 3.12 l 5.8455,10.186659 0.03375,-0.02025 v 7.833872 h 3 V 10.165409 L 12.033,10.185659 17.8785,-0.001 Z"
     id="path2"
     inkscape:connector-curvature="0"
     style="fill:#000000;stroke-width:0.75000584" />
  <path
     d="m 22.5,5.9990938 c 0.813,0 1.5,0.6870107 1.5,1.5000234 v 6.0000938 c 0,0.813013 -0.687,1.500023 -1.5,1.500023 -0.813,0 -1.5,-0.68701 -1.5,-1.500023 V 7.4991172 c 0,-0.8130127 0.687,-1.5000234 1.5,-1.5000234 z m 0,-3.0000469 c -2.475,0 -4.5,2.0250316 -4.5,4.5000703 v 6.0000938 c 0,2.475039 2.025,4.50007 4.5,4.50007 2.475,0 4.5,-2.025031 4.5,-4.50007 V 7.4991172 C 27,5.0240785 24.975,2.9990469 22.5,2.9990469 Z"
     id="path4"
     inkscape:connector-curvature="0"
     style="fill:#000000;stroke-width:0.75000584" />
  <path
     d="M 36,2.9990469 V 14.810231 c -1.30875,1.092017 -3,1.749778 -3,-2.139033 V 2.9990469 H 30 V 13.280208 h 0.0045 c 0.0465,2.480288 0.56925,6.945858 5.9955,3.314301 v 1.404772 h 3 V 2.9990469 Z"
     id="path6"
     inkscape:connector-curvature="0"
     style="fill:#000000;stroke-width:0.75000584" />
  <path
     d="m 40.5,32.999516 c -0.82725,0 -1.5,0.67276 -1.5,1.500023 v 1.500024 h 3 v -1.500024 c 0,-0.827263 -0.67275,-1.500023 -1.5,-1.500023 z"
     id="path8"
     inkscape:connector-curvature="0"
     style="fill:#000000;stroke-width:0.75000584" />
  <path
     d="m 27,34.499539 v 7.875123 c 1.0155,1.015516 3,1.125018 3,-0.375006 0,-1.500023 0,-5.531336 0,-7.03136 0,-1.500023 -1.5,-1.96878 -3,-0.468757 z"
     id="path10"
     inkscape:connector-curvature="0"
     style="fill:#000000;stroke-width:0.75000584" />
  <path
     d="M 47.75475,27.258926 C 47.6235,25.530899 47.0025,24.120877 45.89025,23.02886 44.778,21.936843 43.35525,21.341333 41.62125,21.243832 38.3505,21.081079 30.8655,20.999328 24.291,20.999328 c -6.5745,0 -14.592,0.08175 -17.86275,0.244504 -1.734,0.0975 -3.15675,0.693011 -4.269,1.785028 -1.11225,1.092017 -1.734,2.502039 -1.8645,4.230066 C 0.09825,30.780231 0,32.056751 0,33.817028 c 0,1.760278 0.09825,4.401069 0.29475,7.922374 0.1305,1.728027 0.75225,3.138049 1.8645,4.230066 1.11225,1.092017 2.535,1.686777 4.269,1.785028 C 9.699,47.917249 17.7165,47.999 24.291,47.999 c 6.5745,0 14.0595,-0.08175 17.33025,-0.244504 1.734,-0.0975 3.15675,-0.693011 4.269,-1.785028 1.11225,-1.092017 1.734,-2.502039 1.8645,-4.230066 C 47.91825,38.805356 48,36.164565 48,33.817028 48,31.469492 47.91825,30.192972 47.75475,27.258926 Z M 9,44.999703 H 6 V 29.999469 H 3 v -3.000047 h 9 v 3.000047 H 9 Z m 12,0 h -3 v -1.404772 c -5.703,3.20105 -5.949,0.102752 -5.9955,-2.376787 H 12 v -8.218628 h 3 v 8.265879 c 0,1.812778 1.69125,1.637275 3,0.545258 v -8.811137 h 3 z m 12,-3.042797 c 0,3.135799 -3.2115,4.050063 -6,1.611775 v 1.431022 H 24 V 26.999422 h 3 v 4.875076 c 3,-3.000047 6,-1.875029 6,1.125018 0,3.000047 0,5.679838 0,8.95739 z m 12,-5.957343 v 1.500023 h -6 v 3.000047 c 0,0.827263 0.67275,1.500023 1.5,1.500023 0.82725,0 1.5,-0.67276 1.5,-1.500023 v -1.500024 h 3 v 1.500024 c 0,2.481039 -2.019,4.50007 -4.5,4.50007 -2.481,0 -4.5,-2.019031 -4.5,-4.50007 v -6.000094 c 0,-2.481039 2.019,-4.50007 4.5,-4.50007 2.481,0 4.5,2.019031 4.5,4.50007 z"
     id="path12"
     inkscape:connector-curvature="0"
     style="fill:#000000;stroke-width:0.75000584" />
</svg>
