<?xml version="1.0" encoding="UTF-8" standalone="no"?>
<!-- Created with Inkscape (http://www.inkscape.org/) -->

<svg
   xmlns:dc="http://purl.org/dc/elements/1.1/"
   xmlns:cc="http://creativecommons.org/ns#"
   xmlns:rdf="http://www.w3.org/1999/02/22-rdf-syntax-ns#"
   xmlns:svg="http://www.w3.org/2000/svg"
   xmlns="http://www.w3.org/2000/svg"
   xmlns:xlink="http://www.w3.org/1999/xlink"
   xmlns:sodipodi="http://sodipodi.sourceforge.net/DTD/sodipodi-0.dtd"
   xmlns:inkscape="http://www.inkscape.org/namespaces/inkscape"
   width="369.245"
   height="280.51923"
   id="svg2"
   version="1.1"
   inkscape:version="0.92.0 r15299"
   sodipodi:docname="pinguino.svg"
   inkscape:export-filename="/home/yeison/Escritorio/logo.png"
   inkscape:export-xdpi="90.476517"
   inkscape:export-ydpi="90.476517">
  <defs
     id="defs4">
    <linearGradient
       id="linearGradient3111"
       inkscape:collect="always">
      <stop
         id="stop3113"
         offset="0"
         style="stop-color:#ffffff;stop-opacity:1;" />
      <stop
         id="stop3115"
         offset="1"
         style="stop-color:#000000;stop-opacity:1" />
    </linearGradient>
    <linearGradient
       inkscape:collect="always"
       id="linearGradient4035">
      <stop
         style="stop-color:#ffffff;stop-opacity:1;"
         offset="0"
         id="stop4037" />
      <stop
         style="stop-color:#000000;stop-opacity:1"
         offset="1"
         id="stop4039" />
    </linearGradient>
    <linearGradient
       id="linearGradient4003">
      <stop
         style="stop-color:#d40000;stop-opacity:1"
         offset="0"
         id="stop4005" />
      <stop
         style="stop-color:#000000;stop-opacity:0;"
         offset="1"
         id="stop4007" />
    </linearGradient>
    <radialGradient
       inkscape:collect="always"
       xlink:href="#linearGradient4035-3"
       id="radialGradient4041-2"
       cx="-392.52728"
       cy="-242.85182"
       fx="-392.52728"
       fy="-242.85182"
       r="5.625"
       gradientTransform="matrix(1.1016506,1.7807346,-1.8257089,1.2235834,-403.31116,749.3151)"
       gradientUnits="userSpaceOnUse" />
    <linearGradient
       inkscape:collect="always"
       id="linearGradient4035-3">
      <stop
         style="stop-color:#ffffff;stop-opacity:1;"
         offset="0"
         id="stop4037-8" />
      <stop
         style="stop-color:#000000;stop-opacity:1"
         offset="1"
         id="stop4039-0" />
    </linearGradient>
    <radialGradient
       inkscape:collect="always"
       xlink:href="#linearGradient4035"
       id="radialGradient3095"
       gradientUnits="userSpaceOnUse"
       gradientTransform="matrix(1.3839996,1.9697203,-2.2936314,1.3534398,939.18919,970.04391)"
       cx="-392.52728"
       cy="-242.85182"
       fx="-392.52728"
       fy="-242.85182"
       r="5.625" />
    <radialGradient
       inkscape:collect="always"
       xlink:href="#linearGradient4035-3"
       id="radialGradient3097"
       gradientUnits="userSpaceOnUse"
       gradientTransform="matrix(1.1337176,1.6104056,-1.8788518,1.1065464,-908.40881,488.11231)"
       cx="-392.52728"
       cy="-242.85182"
       fx="-392.52728"
       fy="-242.85182"
       r="5.625" />
    <radialGradient
       inkscape:collect="always"
       xlink:href="#linearGradient3111"
       id="radialGradient3100"
       gradientUnits="userSpaceOnUse"
       gradientTransform="matrix(0.69597562,1.5370732,-1.5191801,0.68787396,-595.82847,-721.37808)"
       cx="814.27222"
       cy="-257.20679"
       fx="814.27222"
       fy="-257.20679"
       r="66.629425" />
  </defs>
  <sodipodi:namedview
     id="base"
     pagecolor="#ffffff"
     bordercolor="#666666"
     borderopacity="1.0"
     inkscape:pageopacity="0.0"
     inkscape:pageshadow="2"
     inkscape:zoom="2.1328292"
     inkscape:cx="247.46947"
     inkscape:cy="157.51678"
     inkscape:document-units="px"
     inkscape:current-layer="layer1"
     showgrid="false"
     fit-margin-top="0"
     fit-margin-left="0"
     fit-margin-right="0"
     fit-margin-bottom="0"
     inkscape:window-width="1920"
     inkscape:window-height="955"
     inkscape:window-x="0"
     inkscape:window-y="25"
     inkscape:window-maximized="1"
     showguides="true"
     inkscape:guide-bbox="true" />
  <metadata
     id="metadata7">
    <rdf:RDF>
      <cc:Work
         rdf:about="">
        <dc:format>image/svg+xml</dc:format>
        <dc:type
           rdf:resource="http://purl.org/dc/dcmitype/StillImage" />
        <dc:title></dc:title>
      </cc:Work>
    </rdf:RDF>
  </metadata>
  <g
     inkscape:label="Capa 1"
     inkscape:groupmode="layer"
     id="layer1"
     transform="translate(-233.89174,-223.09815)">
    <path
       inkscape:connector-curvature="0"
       id="path2985"
       d="m 538.03861,500.51328 c -0.41397,-1.92971 -0.92,-3.79648 -1.12448,-4.14827 -0.20448,-0.35178 -3.62794,-0.0107 -7.60789,0.76075 -11.36736,2.2 -15.24107,1.88064 -22.28597,-1.8368 -9.71499,-5.12651 -24.30219,-12.90229 -25.44384,-13.56309 -0.56491,-0.32694 -13.5248,-0.66923 -28.7999,-0.76075 -26.49376,-0.15861 -43.10037,-1.47552 -60.30634,-4.78251 -41.83243,-8.0401 -70.20491,-20.70666 -91.3295,-40.7729 -17.84458,-16.95062 -29.94101,-43.60342 -32.01088,-70.5312 -0.38922,-5.064 -0.80181,-9.20726 -0.91669,-9.20726 -1.42304,0 -13.20235,4.77206 -18.1136,7.33814 -8.07275,4.21792 -13.94293,4.49653 -15.65323,0.74282 -0.95968,-2.10613 -0.74026,-3.49013 1.18283,-7.46272 1.29845,-2.68245 3.63893,-5.85941 5.20096,-7.06005 1.56203,-1.20064 3.93867,-3.00245 5.28128,-4.00395 1.37184,-1.02325 3.62549,-5.09162 5.14485,-9.28757 1.48704,-4.10667 3.93227,-9.07829 5.43392,-11.04811 3.07382,-4.03189 11.38027,-8.29461 18.13835,-9.30805 2.4784,-0.37163 4.99531,-1.26496 5.59296,-1.98517 2.26411,-2.72811 4.51989,-11.18112 6.43968,-24.13131 3.25163,-21.93547 8.50187,-33.17504 21.44757,-45.91477 13.95168,-13.72982 30.78006,-20.2592 52.69483,-20.44544 15.28885,-0.13003 22.76437,1.54048 35.56469,7.9473 15.5359,7.77611 30.92064,25.97163 36.31467,42.94923 1.13045,3.55829 2.58411,12.64821 3.23019,20.19957 1.16245,13.58731 4.38421,27.39958 7.13365,30.58294 0.78187,0.90549 4.19712,2.23018 7.58923,2.944 12.2448,2.57642 18.54325,8.504 22.07168,20.77248 1.53728,5.34506 2.48106,6.67178 7.11381,10 7.6528,5.49802 11.80533,14.72074 8.23531,18.29066 -2.31328,2.31328 -7.14048,1.34859 -17.13526,-3.42432 -5.41824,-2.5873 -11.36768,-5.01589 -13.22101,-5.3968 l -3.36971,-0.69237 -0.74154,8.33013 c -1.6976,19.07072 -6.25504,31.87094 -16.06848,45.13003 -6.61142,8.93291 -8.17995,13.33888 -6.69398,18.80331 1.75446,6.45184 9.53078,13.29162 18.43478,16.2145 4.03754,1.32544 7.672,2.0287 8.07669,1.56278 0.40469,-0.46603 4.01365,-5.16726 8.01984,-10.44726 4.00629,-5.28 7.80032,-9.95274 8.43136,-10.38389 1.656,-1.13141 11.05152,-3.79157 16.39424,-4.6416 3.52715,-0.56128 4.92864,-1.40235 6.09504,-3.65792 4.28405,-8.28427 14.00021,-11.51189 22.40576,-7.44288 7.83616,3.79339 11.07051,11.00512 8.42624,18.78848 -3.71392,10.93173 -17.65077,14.49611 -26.45515,6.76576 l -3.56885,-3.13344 -7.87499,2.06539 c -8.35872,2.19232 -10.08245,3.59296 -14.84085,12.0593 l -2.4144,4.29611 10.55669,-0.73333 c 11.89462,-0.82635 40.71051,-5.58838 62.29024,-10.29398 7.92,-1.72704 15.72,-3.248 17.33334,-3.37994 3.344,-0.2736 3.59114,-1.55104 1.7297,-8.94315 -0.66197,-2.62901 -1.0064,-4.97707 -0.76554,-5.21792 0.58944,-0.58944 39.83584,10.53675 39.83584,11.29323 0,0.32746 -6.96,6.64117 -15.46667,14.0305 l -15.46667,13.4351 -1.63328,-5.19734 c -0.89834,-2.85845 -1.95818,-5.52224 -2.35541,-5.91936 -0.39712,-0.39712 -5.90219,0.51552 -12.23339,2.02816 -15.81888,3.77942 -38.99829,8.90432 -46.71125,10.32768 -9.5776,1.76747 -9.83072,1.91616 -6.85088,4.02507 6.60256,4.67285 14.25877,8.76331 16.40224,8.76331 1.29771,0 5.12992,-0.55638 8.51605,-1.23638 l 6.15659,-1.23648 -0.57824,-3.56352 c -0.31808,-1.96 -0.43445,-3.56362 -0.25877,-3.56362 0.17578,0 6.21162,-1.2 13.41301,-2.66667 7.20139,-1.46667 13.456,-2.66667 13.8992,-2.66667 1.14923,0 1.90091,2.31115 4.31232,13.25899 1.17205,5.32096 2.37323,10.47317 2.66923,11.44949 0.45034,1.48512 -1.51574,2.24043 -12.03798,4.62454 -6.9168,1.56714 -13.37386,3.0673 -14.3488,3.33354 -1.30101,0.35542 -1.9729,-0.44928 -2.52544,-3.02453 z"
       style="fill:#040404;stroke-width:1.06666672"
       sodipodi:nodetypes="sccssssssssssssssssssssssssssssscsssssssssssscsscssssssscssssssscsssssssss" />
    <path
       sodipodi:nodetypes="csscssssssssssscssssscc"
       style="fill:url(#radialGradient3100);fill-opacity:1;stroke-width:1.06666672"
       d="m 433.32745,392.70674 c 2.75626,-9.58261 2.08339,-27.7357 -0.95352,-39.37186 -3.53931,-13.56139 -10.76192,-27.05963 -19.14709,-35.784 l -7.18571,-7.47637 -3.48843,1.74026 c -1.91861,0.95712 -5.25962,1.98294 -7.42432,2.27947 -3.28885,0.45056 -4.24896,1.20405 -5.83946,4.58325 -3.79275,8.0575 -19.672,22.39072 -24.80587,22.39072 -3.48096,0 -14.40053,-8.44992 -19.71819,-15.25866 -3.96917,-5.08214 -5.224,-5.98006 -9.18656,-6.5743 -2.58122,-0.38709 -6.92576,-2.29536 -9.92864,-4.36096 -2.93653,-2.01994 -5.77568,-3.67274 -6.30922,-3.67274 -1.69952,0 -13.35211,13.28714 -16.92416,19.29824 -6.10582,10.27477 -9.06752,20.44576 -9.64075,33.1073 -0.28555,6.30966 0.0288,14.44918 0.70784,18.35126 2.32235,13.33536 14.09099,30.60256 22.47701,39.97386 9.34165,8.73745 25.38842,21.87839 40.86392,27.92001 8.01294,3.12825 24.18708,11.63299 31.7547,11.23641 10.88342,-0.57035 23.13451,-5.02399 30.02247,-7.69707 3.35584,-1.30233 -3.33504,-5.19403 -4.87082,-10.62862 -2.02644,-7.17079 0.88946,-12.31395 0.88946,-12.31395 2.05498,-4.84291 14.42369,-23.99076 18.70728,-37.74225 z"
       id="path3075"
       inkscape:connector-curvature="0" />
    <path
       inkscape:connector-curvature="0"
       id="path2985-0-7-3-8"
       d="m 374.46421,332.9152 c 6.42176,-5.36565 14.16384,-15.37013 14.95478,-19.3248 0.88032,-4.40171 -2.9344,-8.03936 -10.84118,-10.33792 -13.8769,-4.03413 -36.65589,0.37077 -38.42794,7.43104 -0.94102,3.74912 3.36896,10.83488 11.3632,18.6816 10.92501,10.72341 13.82837,11.17259 22.95114,3.55008 z"
       style="fill:#ffff00;stroke-width:1.06666672"
       sodipodi:nodetypes="ssssss" />
    <g
       id="g4077"
       transform="translate(-573.75415,549.93376)">
      <path
         sodipodi:nodetypes="sssccsssscsssssssss"
         style="fill:#ffffff;stroke:#000000;stroke-width:1.06666672;stroke-miterlimit:4;stroke-dasharray:none;stroke-opacity:1"
         d="m 912.81789,-236.75803 c -0.49568,-3.0544 -0.10134,-4.12213 2.36394,-6.40725 3.24598,-3.00821 11.70475,-5.92757 17.17504,-5.92757 3.12384,0 3.60608,-0.41931 4.60043,-4 1.58208,-5.37686 1.08779,-9.49995 1.12192,-14.93334 -9.6e-4,-6.28565 -4.65365,-16.4545 -9.74005,-21.288 -3.65867,-3.47669 -11.01899,-6.712 -15.26987,-6.712 -8.98197,0 -19.62925,8.58571 -23.26111,18.75734 -2.33065,6.52736 -2.44089,18.65376 -0.22773,25.05258 3.54108,10.2383 13.22975,19.0687 20.96596,19.10859 2.67168,0.0139 2.82581,-0.23392 2.27147,-3.65035 z m 62.73429,-3.35797 c 18.40501,-9.39968 18.76288,-33.4896 0.63168,-42.5248 -9.94549,-4.95595 -23.31851,-2.99499 -30.21792,4.43104 -6.57493,7.07691 -8.68587,17.25109 -5.2736,25.41781 1.42272,3.40502 1.91029,3.69995 6.13333,3.70944 6.44694,0.0149 15.20619,4.30422 17.3823,8.51243 1.55701,3.01088 2.07968,3.27744 5.1361,2.61941 1.87147,-0.40288 4.66518,-1.37728 6.20811,-2.16533 z"
         id="path2985-0-7-9"
         inkscape:connector-curvature="0" />
      <ellipse
         transform="rotate(-8.2956551)"
         id="path3143-7"
         style="fill:url(#radialGradient3095);fill-opacity:1;fill-rule:nonzero;stroke:none;stroke-width:1.17882335"
         cx="957.63934"
         cy="-124.81824"
         rx="7.0666666"
         ry="10.508216" />
      <ellipse
         transform="matrix(-0.98747785,-0.15775772,-0.15775772,0.98747785,0,0)"
         id="path3143-7-5"
         style="fill:url(#radialGradient3097);fill-opacity:1;fill-rule:nonzero;stroke:none;stroke-width:0.96471387"
         cx="-893.29517"
         cy="-407.026"
         rx="5.788733"
         ry="8.5913153" />
    </g>
    <g
       id="g3033"
       transform="translate(-49.613909,-22.326262)" />
  </g>
</svg>
